{"title":"Katakuti (2011) - Bengali - Original DVD RIP","uid":7622997,"size":822185466,"categoryP":"video","categoryS":"movies","magnet":"?xt=urn:btih:0710556b50bb41a3ac2b8626c6036c192f6087eb&amp;dn=Katakuti+%282011%29+-+Bengali+-+Original+DVD+RIP&amp;tr=udp%3A%2F%2Ftracker.openbittorrent.com%3A80&amp;tr=udp%3A%2F%2Fopen.demonii.com%3A1337&amp;tr=udp%3A%2F%2Ftracker.coppersurfer.tk%3A6969&amp;tr=udp%3A%2F%2Fexodus.desync.com%3A6969","seeders":0,"leechers":2,"uploader":"bishakhdutta","files":-1,"time":1347375636,"description":"\n\n\n\n___________________________________________________________________________________\n\n\n                    Crime Does Not Pay ! But I Always Pay !                 \n\n___________________________________________________________________________________\n\n\n\n\n\nNote : Hard Coded English Sub Available. Original DVD Is Out Now. Enjoy !\n\n\n\n\nScreens :\n\n\n &lt;a href=&quot;\nhttp://www.shotpix.com/images/75013791363516208096.jpg&quot; rel=&quot;nofollow&quot; target=&quot;_NEW&quot;&gt;\nhttp://www.shotpix.com/images/75013791363516208096.jpg&lt;/a&gt;\n &lt;a href=&quot;\nhttp://www.shotpix.com/images/43451145362412651618.jpg&quot; rel=&quot;nofollow&quot; target=&quot;_NEW&quot;&gt;\nhttp://www.shotpix.com/images/43451145362412651618.jpg&lt;/a&gt;\n &lt;a href=&quot;\nhttp://i.imgur.com/bM8lS.jpg&quot; rel=&quot;nofollow&quot; target=&quot;_NEW&quot;&gt;\nhttp://i.imgur.com/bM8lS.jpg&lt;/a&gt;\n\n\n\nExtra Screens :\n\n\n &lt;a href=&quot;\nhttp://www.shotpix.com/images/93439325985918036624.jpg&quot; rel=&quot;nofollow&quot; target=&quot;_NEW&quot;&gt;\nhttp://www.shotpix.com/images/93439325985918036624.jpg&lt;/a&gt;\n &lt;a href=&quot;\nhttp://www.shotpix.com/images/93343748741351597004.jpg&quot; rel=&quot;nofollow&quot; target=&quot;_NEW&quot;&gt;\nhttp://www.shotpix.com/images/93343748741351597004.jpg&lt;/a&gt;\n &lt;a href=&quot;\nhttp://www.shotpix.com/images/79770660689330878723.jpg&quot; rel=&quot;nofollow&quot; target=&quot;_NEW&quot;&gt;\nhttp://www.shotpix.com/images/79770660689330878723.jpg&lt;/a&gt;\n &lt;a href=&quot;\nhttp://www.shotpix.com/images/34619064509854083841.jpg&quot; rel=&quot;nofollow&quot; target=&quot;_NEW&quot;&gt;\nhttp://www.shotpix.com/images/34619064509854083841.jpg&lt;/a&gt;\n &lt;a href=&quot;\nhttp://www.shotpix.com/images/65914487715772628026.jpg&quot; rel=&quot;nofollow&quot; target=&quot;_NEW&quot;&gt;\nhttp://www.shotpix.com/images/65914487715772628026.jpg&lt;/a&gt;\n\n\n\nMedia Info :\n\n\n\nFormat/Info                      : Audio Video Interleave\nFile size                        : 783 MiB\nDuration                         : 2h 1mn\nOverall bit rate                 : 900 Kbps\n\nVideo\nID                               : 0\nFormat                           : MPEG-4 Visual\nFormat profile                   : Simple@L1\nFormat settings, BVOP            : No\nFormat settings, QPel            : No\nFormat settings, GMC             : No warppoints\nFormat settings, Matrix          : Default (H.263)\nCodec ID                         : DX50\nCodec ID/Hint                    : DivX 5\nDuration                         : 2h 1mn\nBit rate                         : 760 Kbps\nWidth                            : 720 pixels\nHeight                           : 404 pixels\nDisplay aspect ratio             : 4:3\nFrame rate                       : 23.976 fps\nColor space                      : YUV\nChroma subsampling               : 4:2:0\nBit depth                        : 8 bits\nScan type                        : Progressive\nCompression mode                 : Lossy\nBits/(Pixel*Frame)               : 0.109\nStream size                      : 660 MiB (84%)\n\nAudio\nID                               : 1\nFormat                           : MPEG Audio\nFormat version                   : Version 1\nFormat profile                   : Layer 3\nCodec ID                         : 55\nCodec ID/Hint                    : MP3\nDuration                         : 2h 1mn\nBit rate mode                    : Constant\nBit rate                         : 128 Kbps\nChannel(s)                       : 2 channels\nSampling rate                    : 48.0 KHz\nCompression mode                 : Lossy\nStream size                      : 111 MiB (14%)\nAlignment                        : Aligned on interleaves\nInterleave, duration             : 24 ms (0.58 video frame)\nInterleave, preload duration     : 504 ms\n\n\n\n\n___________________________________________________________________________________\n\n\n                    Crime Does Not Pay ! But I Always Pay !                 \n\n___________________________________________________________________________________\n\n\n\n\n","torrent":{"xt":"urn:btih:0710556b50bb41a3ac2b8626c6036c192f6087eb","amp;dn":"Katakuti+%282011%29+-+Bengali+-+Original+DVD+RIP","amp;tr":["udp%3A%2F%2Ftracker.openbittorrent.com%3A80","udp%3A%2F%2Fopen.demonii.com%3A1337","udp%3A%2F%2Ftracker.coppersurfer.tk%3A6969","udp%3A%2F%2Fexodus.desync.com%3A6969"],"infoHash":"0710556b50bb41a3ac2b8626c6036c192f6087eb","infoHashBuffer":{"type":"Buffer","data":[7,16,85,107,80,187,65,163,172,43,134,38,198,3,108,25,47,96,135,235]},"announce":[],"urlList":[]}}